<?xml version="1.0" encoding="iso-8859-1"?>
<!-- Generator: Adobe Illustrator 19.0.0, SVG Export Plug-In . SVG Version: 6.00 Build 0)  -->
<svg version="1.1" id="Capa_1" xmlns="http://www.w3.org/2000/svg" xmlns:xlink="http://www.w3.org/1999/xlink" x="0px" y="0px"
	 viewBox="0 0 512 512" style="enable-background:new 0 0 512 512;" xml:space="preserve">
<g>
	<g>
		<path fill="#2c1b08" d="M408.405,53.028l-20.121-11.617C390.038,32.391,391,23.204,391,15c0-8.284-6.716-15-15-15H136c-8.284,0-15,6.716-15,15
			c0,8.204,0.962,17.392,2.717,26.412l-20.122,11.617c-21.487,12.405-28.876,39.981-16.47,61.472
			c12.407,21.487,39.984,28.877,61.471,16.47l19.891-11.484c12.478,10.611,26.878,18.872,42.513,24.385V167
			c0,24.813,20.187,45,45,45s45-20.187,45-45v-23.128c15.635-5.513,30.036-13.773,42.514-24.385l19.891,11.484
			c21.485,12.406,49.063,5.017,61.471-16.472C437.282,93.01,429.893,65.434,408.405,53.028z M398.895,99.498
			c-4.136,7.162-13.328,9.626-20.49,5.492l-24.887-14.369c-7.502-7.547-16.977-6.162-22.298-0.676
			c-13.41,13.824-30.596,23.68-49.699,28.5c-7.426,1.874-12.248,9.041-11.185,16.625c0.18,1.282,0.454,2.374,0.664,3.145V167
			c0,8.271-6.729,15-15,15s-15-6.729-15-15v-28.783c0.21-0.77,0.484-1.86,0.664-3.14c1.066-7.586-3.756-14.756-11.184-16.63
			c-19.103-4.82-36.289-14.676-49.699-28.5c-5.288-5.453-14.742-6.919-22.299,0.677l-24.885,14.367
			c-7.16,4.137-16.354,1.672-20.49-5.489c-4.136-7.165-1.674-16.357,5.489-20.493L143.554,64.6
			c10.696-2.796,14.028-11.81,11.963-19.046c-1.416-4.962-2.545-10.502-3.321-15.755h207.609
			c-0.775,5.253-1.905,10.793-3.321,15.755c-2.096,7.346,1.349,16.274,11.964,19.045l24.957,14.409
			C400.567,83.143,403.03,92.336,398.895,99.498z"/>
	</g>
</g>
<g>
	<g>
		<path fill="#2c1b08" d="M421,242H91c-8.284,0-15,6.716-15,15s6.716,15,15,15h16.73l24.702,201.072c0.012,0.098,0.025,0.195,0.039,0.292
			C135.618,495.39,154.769,512,177.019,512h157.962c22.25,0,41.401-16.61,44.548-38.636c0.014-0.097,0.026-0.194,0.038-0.292
			L404.27,272H421c8.284,0,15-6.716,15-15S429.284,242,421,242z M349.813,469.24c-1.101,7.283-7.455,12.76-14.831,12.76H177.019
			c-7.376,0-13.731-5.477-14.832-12.76L137.956,272h236.089L349.813,469.24z"/>
	</g>
</g>
<g>
	<g>
		<path fill="#2c1b08" d="M316,302c-8.284,0-15,6.716-15,15v30c0,24.813-20.187,45-45,45s-45-20.187-45-45v-30c0-8.284-6.716-15-15-15
			s-15,6.716-15,15v30c0,41.355,33.645,75,75,75c41.355,0,75-33.645,75-75v-30C331,308.716,324.284,302,316,302z"/>
	</g>
</g>
<g>
</g>
<g>
</g>
<g>
</g>
<g>
</g>
<g>
</g>
<g>
</g>
<g>
</g>
<g>
</g>
<g>
</g>
<g>
</g>
<g>
</g>
<g>
</g>
<g>
</g>
<g>
</g>
<g>
</g>
</svg>
